<svg width="217" height="192" viewBox="0 0 217 192" fill="none" xmlns="http://www.w3.org/2000/svg">
<g style="mix-blend-mode:soft-light">
<path d="M65.7857 38.137L175.262 70.6281C176.541 71.0071 177.799 71.4511 179.029 71.9574C179.315 69.4172 178.966 66.7915 178.003 64.2386C177.041 61.6857 175.484 59.2586 173.428 57.1034C171.371 54.9483 168.858 53.1098 166.038 51.6988C163.218 50.2879 160.151 49.3336 157.021 48.8937L63.3408 34.4596L63.2381 34.4292C57.3303 33.6158 51.5461 34.6801 47.0669 37.4048C53.0069 36.0235 59.5507 36.2795 65.7857 38.137ZM173.314 77.1912L63.8379 44.7001C58.0313 42.9824 51.9182 43.1762 46.8396 45.239C41.761 47.3019 38.1319 51.0654 36.7484 55.7037L21.1654 108.209C19.7946 112.851 20.7831 117.985 23.9141 122.484C27.0451 126.984 32.0628 130.481 37.8663 132.209L147.342 164.7C153.149 166.418 159.262 166.224 164.34 164.161C169.419 162.098 173.048 158.335 174.432 153.697L190.015 101.191C191.385 96.5491 190.397 91.4152 187.266 86.9158C184.135 82.4165 179.117 78.9191 173.314 77.1912ZM141.48 124.874C139.315 124.231 137.351 123.09 135.836 121.594C134.321 120.098 133.324 118.315 132.969 116.47C132.615 114.625 132.921 112.801 133.847 111.229C134.773 109.657 136.279 108.407 138.173 107.638C140.067 106.868 142.265 106.614 144.489 106.906C146.713 107.199 148.863 108.025 150.667 109.281C152.47 110.537 153.847 112.166 154.623 113.963C155.399 115.759 155.539 117.641 155.025 119.372C154.336 121.693 152.522 123.576 149.982 124.608C147.442 125.64 144.384 125.735 141.48 124.874Z" fill="white" fill-opacity="0.31"/>
<path d="M31.4412 74.2134L39.5167 47.0036C41.2755 41.0776 48.3294 32.361 63.2171 34.4378C75.8489 36.2139 87.8228 39.7677 87.8228 39.7677C87.8228 39.7677 94.3928 46.4784 87.8927 44.5492C81.3925 42.6201 79.5751 49.3708 85.9042 51.2491C92.2333 53.1275 83.9969 57.6756 83.9969 57.6756L51.6515 73.2191L31.4412 74.2134Z" fill="white" fill-opacity="0.31"/>
</g>
</svg>
